<svg width="80" height="80" viewBox="0 0 80 80" fill="none" xmlns="http://www.w3.org/2000/svg">
<rect width="80" height="80" fill="white"/>
<path d="M42.3766 52.0424H36.9748V69.2727H42.3766V52.0424Z" fill="black"/>
<path d="M69.3613 43.8016C73.6149 50.8411 70.8566 59.7183 63.2005 63.6294C55.5443 67.5404 45.8895 65.0043 41.6359 57.9648C40.503 56.09 39.8339 54.0085 39.6787 51.8711C39.0868 59.9081 31.5213 65.9783 22.783 65.4319C14.0448 64.8854 7.44286 57.9292 8.03718 49.8947C8.63149 41.8602 16.1971 35.79 24.9353 36.3364C27.2293 36.4799 29.4619 37.0803 31.5073 38.0975C24.0187 33.9668 21.5677 25.0137 26.0618 18.1016C30.556 11.1895 40.2933 8.93597 47.8109 13.0681C55.3284 17.2003 57.7793 26.1535 53.2852 33.0655C51.933 35.1452 50.0384 36.8824 47.7848 38.1284C55.4528 34.2259 65.1077 36.762 69.3613 43.8016Z" fill="black"/>
</svg>
