<svg width="80" height="80" viewBox="0 0 80 80" fill="none" xmlns="http://www.w3.org/2000/svg">
<rect width="80" height="80" fill="white"/>
<path d="M40.2112 70.673C37.558 64.9772 34.133 59.6547 30.0638 54.9036C27.4395 51.8396 24.5549 49.0185 21.6325 46.2485C19.3497 44.0847 17.0264 41.9328 15.1585 39.3896C13.8967 37.6715 12.8436 35.76 12.342 33.6762C11.4333 29.9021 12.4218 25.8562 14.2867 22.466C15.3789 20.4805 16.7762 18.6545 18.4975 17.203C21.0549 15.0463 24.3916 13.7569 27.7006 14.0383C30.7352 14.2965 33.573 15.8462 35.7874 17.9747C37.7472 19.8584 39.2738 22.2067 40.2437 24.7796C41.2137 22.2067 42.7402 19.8584 44.7 17.9747C46.9145 15.8462 49.7523 14.2965 52.7868 14.0383C56.0958 13.7569 59.4325 15.0463 61.9899 17.203C63.7112 18.6545 65.1085 20.4805 66.2007 22.466C68.0656 25.8562 69.0541 29.9021 68.1454 33.6762C67.6438 35.76 66.5907 37.6715 65.3288 39.3896C63.461 41.9328 61.1377 44.0847 58.8549 46.2485C55.9325 49.0185 53.0478 51.8396 50.4236 54.9036C46.3544 59.6547 42.9294 64.9772 40.2762 70.673" fill="#FF0000"/>
</svg>
