<svg width="80" height="80" viewBox="0 0 80 80" fill="none" xmlns="http://www.w3.org/2000/svg">
<rect width="80" height="80" fill="white"/>
<path d="M27.3235 68.6731C27.3235 67.0049 27.2311 65.8 27.2311 64.1318C30.6798 64.1318 34.4166 64.1318 37.8652 64.1318C37.8652 60.1663 37.8652 59.8859 37.8652 55.9204C31.1334 56.1373 23.8479 56.6372 17.5435 53.8594C12.6637 51.1812 11.3172 44.9468 12.3011 39.8214C13.1432 34.0387 16.3579 28.9035 20.5516 24.9485C26.009 19.1112 32.9689 15.1706 40.2351 12C47.6522 15.2242 54.7655 19.2938 60.292 25.285C65.2699 29.9629 68.5866 36.5744 68.4847 43.4967C68.5927 48.4932 65.4976 53.7732 60.3925 54.8635C54.6814 56.445 48.9011 56.1644 43.0383 55.9204C43.0383 59.8859 43.0383 60.1663 43.0383 64.1318C46.487 64.1318 49.6476 64.1318 53.0964 64.1318C53.0964 65.8 53.1888 67.0049 53.1888 68.6731C45.2919 68.6175 35.8529 68.6175 27.3235 68.6731Z" fill="black"/>
</svg>
